<?xml version="1.0" standalone="no"?>
<!DOCTYPE svg PUBLIC "-//W3C//DTD SVG 20010904//EN"
 "http://www.w3.org/TR/2001/REC-SVG-20010904/DTD/svg10.dtd">
<svg version="1.0" xmlns="http://www.w3.org/2000/svg"
 width="512.000000pt" height="512.000000pt" viewBox="0 0 512.000000 512.000000"
 preserveAspectRatio="xMidYMid meet">

<g transform="translate(0.000000,512.000000) scale(0.100000,-0.100000)"
fill="#000000" stroke="none">
<path d="M2343 4750 c-746 -94 -1356 -578 -1617 -1282 -135 -363 -157 -797
-60 -1179 143 -572 532 -1048 1057 -1299 209 -100 406 -156 638 -181 124 -14
401 -6 509 15 41 7 91 17 110 21 36 6 36 6 89 -77 78 -120 216 -253 316 -305
163 -84 330 -113 530 -94 63 6 128 14 144 17 l31 7 0 166 0 166 -78 28 c-91
31 -222 105 -288 161 -49 41 -134 150 -134 171 0 7 26 29 58 50 84 56 196 150
282 235 532 532 718 1328 479 2044 -230 687 -813 1192 -1519 1317 -131 24
-429 34 -547 19z m462 -520 c156 -50 285 -132 406 -256 165 -171 273 -382 331
-647 22 -98 23 -121 23 -557 -1 -432 -2 -460 -23 -553 -42 -188 -100 -330
-192 -471 l-51 -77 -60 53 c-96 84 -190 151 -277 196 -164 86 -387 142 -564
142 l-78 0 0 -195 0 -195 28 -5 c111 -24 230 -88 315 -170 45 -43 137 -160
137 -174 0 -4 -23 -13 -51 -19 -329 -76 -680 71 -912 383 -72 97 -168 290
-201 405 -54 189 -58 247 -53 730 4 408 6 452 25 530 117 480 404 803 797 896
92 21 310 13 400 -16z"/>
</g>
</svg>
